<?xml version="1.0" encoding="UTF-8" standalone="no"?>
<!DOCTYPE svg PUBLIC "-//W3C//DTD SVG 1.1//EN" "http://www.w3.org/Graphics/SVG/1.1/DTD/svg11.dtd">
<svg version="1.1" xmlns="http://www.w3.org/2000/svg" xmlns:xlink="http://www.w3.org/1999/xlink" preserveAspectRatio="xMidYMid meet" viewBox="0 0 400 400" width="400" height="400"><defs><path d="M197.16 -0.01L197.16 346.67L290.49 346.67L290.49 346.67L295.42 346.9L300.29 347.58L305.09 348.7L309.76 350.27L314.27 352.26L318.57 354.66L322.64 357.44L326.42 360.58L329.9 364.07L333.06 367.86L335.84 371.93L338.24 376.23L340.23 380.74L341.79 385.41L342.92 390.2L343.6 395.09L343.83 400L197.16 400L197.16 400L192.23 399.77L187.36 399.09L182.56 397.97L177.89 396.4L173.38 394.41L169.08 392.01L165.02 389.23L161.23 386.09L157.75 382.6L154.59 378.81L151.81 374.74L149.41 370.44L147.43 365.93L145.86 361.26L144.73 356.47L144.05 351.59L143.82 346.67L143.82 53.33L143.82 53.33L144.05 48.4L144.73 43.53L145.86 38.73L147.43 34.06L149.41 29.55L151.81 25.25L154.59 21.18L157.75 17.4L161.23 13.92L165.02 10.76L169.08 7.98L173.38 5.58L177.89 3.59L182.56 2.03L187.36 0.9L192.23 0.22L197.16 -0.01" id="alqQygMVD"></path><path d="M197.16 -0.01L197.16 346.67L290.49 346.67L290.49 346.67L295.42 346.9L300.29 347.58L305.09 348.7L309.76 350.27L314.27 352.26L318.57 354.66L322.64 357.44L326.42 360.58L329.9 364.07L333.06 367.86L335.84 371.93L338.24 376.23L340.23 380.74L341.79 385.41L342.92 390.2L343.6 395.09L343.83 400L197.16 400L197.16 400L192.23 399.77L187.36 399.09L182.56 397.97L177.89 396.4L173.38 394.41L169.08 392.01L165.02 389.23L161.23 386.09L157.75 382.6L154.59 378.81L151.81 374.74L149.41 370.44L147.43 365.93L145.86 361.26L144.73 356.47L144.05 351.59L143.82 346.67L143.82 53.33L143.82 53.33L144.05 48.4L144.73 43.53L145.86 38.73L147.43 34.06L149.41 29.55L151.81 25.25L154.59 21.18L157.75 17.4L161.23 13.92L165.02 10.76L169.08 7.98L173.38 5.58L177.89 3.59L182.56 2.03L187.36 0.9L192.23 0.22L197.16 -0.01" id="a20KpazjZ"></path><path d="M197.16 -0.01L197.16 53.33L223.82 53.33L223.82 53.33L228.89 53.57L233.92 54.29L238.85 55.49L243.65 57.15L248.27 59.25L252.66 61.79L256.79 64.74L260.64 68.06L264.13 71.74L267.27 75.72L270.02 79.99L272.34 84.5L274.23 89.22L275.66 94.09L276.62 99.08L277.1 104.12L277.1 109.2L276.62 114.25L275.66 119.23L274.23 124.11L272.34 128.82L270.02 133.32L267.27 137.6L264.13 141.59L260.64 145.26L256.79 148.59L252.66 151.52L248.27 154.06L243.65 156.17L238.85 157.84L233.92 159.03L228.89 159.76L223.82 160L197.16 160L197.16 213.33L223.82 213.33L223.82 213.33L231.1 213.08L238.35 212.33L245.52 211.11L252.61 209.37L259.55 207.17L266.33 204.49L272.9 201.37L279.25 197.81L285.35 193.81L291.14 189.41L296.63 184.62L301.79 179.46L306.57 173.98L310.98 168.18L314.97 162.08L318.53 155.74L321.66 149.16L324.34 142.38L326.54 135.44L328.27 128.37L329.5 121.18L330.25 113.95L330.49 106.66L330.25 99.38L329.5 92.13L328.27 84.96L326.54 77.88L324.34 70.94L321.66 64.17L318.53 57.58L314.97 51.24L310.98 45.15L306.57 39.34L301.79 33.85L296.63 28.71L291.14 23.91L285.35 19.52L279.25 15.52L272.9 11.95L266.33 8.82L259.55 6.15L252.61 3.95L245.52 2.22L238.35 0.99L231.1 0.25L223.82 -0.01L197.16 -0.01" id="alB4Mc1W4"></path><path d="M197.16 -0.01L197.16 53.33L223.82 53.33L223.82 53.33L228.89 53.57L233.92 54.29L238.85 55.49L243.65 57.15L248.27 59.25L252.66 61.79L256.79 64.74L260.64 68.06L264.13 71.74L267.27 75.72L270.02 79.99L272.34 84.5L274.23 89.22L275.66 94.09L276.62 99.08L277.1 104.12L277.1 109.2L276.62 114.25L275.66 119.23L274.23 124.11L272.34 128.82L270.02 133.32L267.27 137.6L264.13 141.59L260.64 145.26L256.79 148.59L252.66 151.52L248.27 154.06L243.65 156.17L238.85 157.84L233.92 159.03L228.89 159.76L223.82 160L197.16 160L197.16 213.33L223.82 213.33L223.82 213.33L231.1 213.08L238.35 212.33L245.52 211.11L252.61 209.37L259.55 207.17L266.33 204.49L272.9 201.37L279.25 197.81L285.35 193.81L291.14 189.41L296.63 184.62L301.79 179.46L306.57 173.98L310.98 168.18L314.97 162.08L318.53 155.74L321.66 149.16L324.34 142.38L326.54 135.44L328.27 128.37L329.5 121.18L330.25 113.95L330.49 106.66L330.25 99.38L329.5 92.13L328.27 84.96L326.54 77.88L324.34 70.94L321.66 64.17L318.53 57.58L314.97 51.24L310.98 45.15L306.57 39.34L301.79 33.85L296.63 28.71L291.14 23.91L285.35 19.52L279.25 15.52L272.9 11.95L266.33 8.82L259.55 6.15L252.61 3.95L245.52 2.22L238.35 0.99L231.1 0.25L223.82 -0.01L197.16 -0.01" id="a53QF4Ed8b"></path><path d="M197.16 -0.01L43.83 -0.01L43.83 -0.01L44.05 4.92L44.74 9.79L45.86 14.59L47.43 19.26L49.42 23.77L51.81 28.07L54.6 32.13L57.74 35.92L61.23 39.41L65.02 42.56L69.08 45.34L73.39 47.74L77.9 49.72L82.57 51.29L87.35 52.41L92.24 53.1L97.16 53.33L143.82 53.33L143.82 53.33L144.05 48.4L144.73 43.53L145.86 38.73L147.43 34.06L149.41 29.55L151.81 25.25L154.59 21.18L157.75 17.4L161.23 13.92L165.02 10.76L169.08 7.98L173.38 5.58L177.89 3.59L182.56 2.03L187.36 0.9L192.23 0.22L197.16 -0.01" id="a8GyYWF15"></path><path d="M197.16 -0.01L43.83 -0.01L43.83 -0.01L44.05 4.92L44.74 9.79L45.86 14.59L47.43 19.26L49.42 23.77L51.81 28.07L54.6 32.13L57.74 35.92L61.23 39.41L65.02 42.56L69.08 45.34L73.39 47.74L77.9 49.72L82.57 51.29L87.35 52.41L92.24 53.1L97.16 53.33L143.82 53.33L143.82 53.33L144.05 48.4L144.73 43.53L145.86 38.73L147.43 34.06L149.41 29.55L151.81 25.25L154.59 21.18L157.75 17.4L161.23 13.92L165.02 10.76L169.08 7.98L173.38 5.58L177.89 3.59L182.56 2.03L187.36 0.9L192.23 0.22L197.16 -0.01" id="b2FWo3BEDX"></path></defs><g><g><g><use xlink:href="#alqQygMVD" opacity="1" fill="#009bd4" fill-opacity="1"></use><g><use xlink:href="#alqQygMVD" opacity="1" fill-opacity="0" stroke="#000000" stroke-width="1" stroke-opacity="0"></use></g></g><g><use xlink:href="#a20KpazjZ" opacity="1" fill="#000000" fill-opacity="0"></use><g><use xlink:href="#a20KpazjZ" opacity="1" fill-opacity="0" stroke="#000000" stroke-width="0.5" stroke-opacity="0"></use></g></g><g><use xlink:href="#alB4Mc1W4" opacity="1" fill="#64bddf" fill-opacity="1"></use><g><use xlink:href="#alB4Mc1W4" opacity="1" fill-opacity="0" stroke="#000000" stroke-width="1" stroke-opacity="0"></use></g></g><g><use xlink:href="#a53QF4Ed8b" opacity="1" fill="#000000" fill-opacity="0"></use><g><use xlink:href="#a53QF4Ed8b" opacity="1" fill-opacity="0" stroke="#000000" stroke-width="0.5" stroke-opacity="0"></use></g></g><g><use xlink:href="#a8GyYWF15" opacity="1" fill="#64bddf" fill-opacity="1"></use><g><use xlink:href="#a8GyYWF15" opacity="1" fill-opacity="0" stroke="#000000" stroke-width="1" stroke-opacity="0"></use></g></g><g><use xlink:href="#b2FWo3BEDX" opacity="1" fill="#000000" fill-opacity="0"></use><g><use xlink:href="#b2FWo3BEDX" opacity="1" fill-opacity="0" stroke="#000000" stroke-width="0.5" stroke-opacity="0"></use></g></g></g></g></svg>